HIERARCHY
ROOT Hips
{
	OFFSET -0.001795 -0.223333 0.028219
	CHANNELS 6 Xposition Yposition Zposition Zrotation Yrotation Xrotation 
	JOINT LeftUpLeg
	{
		OFFSET 0.069520 -0.091406 -0.006815
		CHANNELS 3 Zrotation Yrotation Xrotation
		JOINT LeftLeg
		{
			OFFSET 0.034277 -0.375199 -0.004496
			CHANNELS 3 Zrotation Yrotation Xrotation
			JOINT LeftFoot
			{
				OFFSET -0.013596 -0.397961 -0.043693
				CHANNELS 3 Zrotation Yrotation Xrotation
				JOINT LeftToe
				{
					OFFSET 0.026358 -0.055791 0.119288
					CHANNELS 3 Zrotation Yrotation Xrotation
					End Site
					{
						OFFSET 0.000000 0.000000 0.000000
					}
				}
			}
		}
	}
	JOINT RightUpLeg
	{
		OFFSET -0.067670 -0.090522 -0.004320
		CHANNELS 3 Zrotation Yrotation Xrotation
		JOINT RightLeg
		{
			OFFSET -0.038290 -0.382569 -0.008850
			CHANNELS 3 Zrotation Yrotation Xrotation
			JOINT RightFoot
			{
				OFFSET 0.015774 -0.398415 -0.042312
				CHANNELS 3 Zrotation Yrotation Xrotation
				JOINT RightToe
				{
					OFFSET -0.025372 -0.048144 0.123348
					CHANNELS 3 Zrotation Yrotation Xrotation
					End Site
					{
						OFFSET 0.000000 0.000000 0.000000
					}
				}
			}
		}
	}
	JOINT Spine
	{
		OFFSET -0.002533 0.108963 -0.026696
		CHANNELS 3 Zrotation Yrotation Xrotation
		JOINT Spine1
		{
			OFFSET 0.005487 0.135180 0.001092
			CHANNELS 3 Zrotation Yrotation Xrotation
			JOINT Spine2
			{
				OFFSET 0.001457 0.052922 0.025425
				CHANNELS 3 Zrotation Yrotation Xrotation
				JOINT Neck
				{
					OFFSET -0.002778 0.213870 -0.042857
					CHANNELS 3 Zrotation Yrotation Xrotation
					JOINT Head
					{
						OFFSET 0.005152 0.064970 0.051349
						CHANNELS 3 Zrotation Yrotation Xrotation
						End Site
						{
							OFFSET 0.000000 0.000000 0.000000
						}
					}
				}
				JOINT LeftShoulder
				{
					OFFSET 0.078845 0.121749 -0.034090
					CHANNELS 3 Zrotation Yrotation Xrotation
					JOINT LeftArm
					{
						OFFSET 0.090977 0.030469 -0.008868
						CHANNELS 3 Zrotation Yrotation Xrotation
						JOINT LeftForeArm
						{
							OFFSET 0.259612 -0.012772 -0.027456
							CHANNELS 3 Zrotation Yrotation Xrotation
							JOINT LeftHand
							{
								OFFSET 0.249234 0.008986 -0.001171
								CHANNELS 3 Zrotation Yrotation Xrotation
								End Site
								{
									OFFSET 0.000000 0.000000 0.000000
								}
							}
						}
					}
				}
				JOINT RightShoulder
				{
					OFFSET -0.081759 0.118833 -0.038615
					CHANNELS 3 Zrotation Yrotation Xrotation
					JOINT RightArm
					{
						OFFSET -0.096012 0.032551 -0.009143
						CHANNELS 3 Zrotation Yrotation Xrotation
						JOINT RightForeArm
						{
							OFFSET -0.253742 -0.013329 -0.021401
							CHANNELS 3 Zrotation Yrotation Xrotation
							JOINT RightHand
							{
								OFFSET -0.255298 0.007772 -0.005559
								CHANNELS 3 Zrotation Yrotation Xrotation
								End Site
								{
									OFFSET 0.000000 0.000000 0.000000
								}
							}
						}
					}
				}
			}
		}
	}
}
MOTION
Frames: 5
Frame Time: 0.050000
0.000000 0.909960 0.000000 -2.183920 -22.244603 8.034024 5.834349 1.724602 -36.444962 -8.571609 2.804103 15.697429 14.966591 22.517309 30.090935 0.000000 0.000000 0.000000 5.178992 -0.290556 -0.556817 2.438947 1.386411 20.885506 -3.919742 -7.659769 -1.945059 0.000000 0.000000 0.000000 0.303355 -0.272005 12.334447 -5.062741 1.524353 -29.668461 0.692660 17.956336 27.901107 12.515437 -4.364261 -29.431185 0.000000 0.000000 0.000000 -13.240551 -3.747093 0.658356 -53.271192 -2.878593 -7.498717 3.564148 -21.404849 0.340672 0.000000 0.000000 0.000000 23.606415 -2.376927 -1.817132 63.113645 10.646047 -3.295965 6.370084 32.968817 3.967617 0.000000 0.000000 0.000000 
-0.012312 0.914076 0.033482 -2.544810 -20.246161 8.566616 6.931281 1.677952 -35.493512 -9.947281 3.289921 16.797980 13.568871 21.462524 28.182914 0.000000 0.000000 0.000000 4.930062 0.065293 -3.120547 4.673945 1.463611 27.570533 -2.199961 -8.374070 5.627799 0.000000 0.000000 0.000000 -0.422062 -0.203558 10.625349 -3.926748 1.293283 -28.933520 -0.236062 17.501721 27.371608 12.485548 -4.264069 -29.139986 0.000000 0.000000 0.000000 -12.933075 -2.794663 0.034602 -52.989307 -2.172536 -7.745377 2.936296 -19.986297 0.375707 0.000000 0.000000 0.000000 24.303774 -3.555391 -2.383006 62.651754 7.797685 -4.774798 9.746543 34.150127 5.176325 0.000000 0.000000 0.000000 
-0.023859 0.922810 0.066789 -2.042165 -18.245562 7.884067 5.718501 0.709035 -33.191207 -9.709987 3.353226 18.661480 12.750561 21.384931 23.252797 0.000000 0.000000 0.000000 1.617227 0.716623 -7.456277 9.890012 0.461649 38.242597 0.824397 -6.342150 14.395869 0.000000 0.000000 0.000000 -0.601055 -0.195133 10.504400 -5.494941 1.624526 -28.696429 -0.002344 15.369739 27.536938 11.766814 -3.805357 -30.087035 0.000000 0.000000 0.000000 -13.302605 -4.100185 0.757185 -53.358704 -0.974143 -8.254618 3.177111 -21.780002 0.386855 0.000000 0.000000 0.000000 23.779907 -3.829664 -2.715692 62.577629 5.442617 -5.969935 11.110671 34.008304 5.496445 0.000000 0.000000 0.000000 
-0.035047 0.930381 0.098909 -2.619811 -17.871603 8.119188 6.456933 0.734585 -31.169275 -10.422287 3.544184 18.265150 14.231853 23.186777 24.325130 0.000000 0.000000 0.000000 -0.000706 1.397111 -12.808275 14.286496 -0.986233 47.210188 0.131749 -9.597215 21.794772 0.000000 0.000000 0.000000 0.094473 -0.281428 9.509075 -5.992345 1.728453 -28.408642 -0.387635 15.509018 26.589600 12.030631 -3.981364 -29.436090 0.000000 0.000000 0.000000 -12.122208 -4.370306 0.864870 -53.524908 -0.254507 -8.499049 1.280844 -22.323655 0.719124 0.000000 0.000000 0.000000 23.683360 -4.513808 -3.078347 63.359332 3.765629 -6.762529 11.872009 32.944598 5.498783 0.000000 0.000000 0.000000 
-0.046959 0.936596 0.129758 -3.507919 -16.520096 7.124838 6.881864 0.452958 -27.137607 -9.381879 3.082263 17.886916 12.715957 21.860840 21.024550 0.000000 0.000000 0.000000 -2.025136 1.796213 -16.716071 18.220611 -3.389186 52.106762 -2.549277 -13.716152 24.754686 0.000000 0.000000 0.000000 0.286891 -0.332227 10.268763 -5.114120 1.562804 -28.633789 -1.078004 14.466558 27.212213 13.012047 -4.539460 -29.787785 0.000000 0.000000 0.000000 -13.284275 -4.591267 0.957548 -52.206487 -0.593065 -8.221213 1.032552 -23.795478 0.832303 0.000000 0.000000 0.000000 23.499285 -4.743059 -3.212418 63.722051 3.323787 -7.115836 11.679535 32.723239 5.424932 0.000000 0.000000 0.000000 
